<?xml version="1.0" encoding="UTF-8"?>
<svg id="_레이어_2" data-name="레이어 2" xmlns="http://www.w3.org/2000/svg" viewBox="0 0 623.62 165.66">
  <defs>
    <style>
      .cls-1, .cls-2 {
        fill: #fff;
      }

      .cls-2 {
        fill-rule: evenodd;
      }
    </style>
  </defs>
  <g id="_레이어_1-2" data-name="레이어 1">
    <g>
      <path class="cls-1" d="M294.78,43.25l-23.73,44.83h13.56s6.04-.11,9.37-1.95c4.77-2.7,5.98-5.4,5.98-5.4h0l14.2-27.47h0s1.84-2.82.69-7.13c-.69-2.88-3.39-2.88-3.39-2.88h-16.67ZM287.09,0h30.57l-15.93,30.14h32.36s8.72-.31,12.82,6.08c4.23,6.57,0,14.2,0,14.2h0l-20.12,37.65h0s-2.69,4.95-10.17,9.08c-8.27,4.65-20.41,4.65-20.41,4.65h-62.93L287.09,0h0Z"/>
      <path class="cls-1" d="M401.1,69.57h-17.12s-2.44-.24-6.07,1.84c-2.18,1.26-2.9,2.64-2.9,2.64h0l-4.03,7.29v.02s-.74,1.95.29,4.3c1.04,2.42,2.82,2.42,2.82,2.42h17.47l9.83-18.51h-.29ZM367.37,30.14h61.84s11.32,0,13.85,5.23c3.22,6.55-.11,12.7-.11,12.7h0l-28.55,53.73h-65.52s-6.09,0-9.54-5.98c-3.45-5.97.29-13.44.29-13.44h0l9.42-17.76h0s1.49-3.16,6.83-5.81c5.4-2.7,14.37-2.41,14.37-2.41h0l38.22-.17,2.64-5.06h0s1.39-2.24,0-4.77c-1.6-3.11-7.01-3.16-7.01-3.16h-43.85l7.13-13.1h0Z"/>
      <polygon class="cls-1" points="228.18 30.14 258.64 30.14 220.71 101.81 190.25 101.81 228.18 30.14 228.18 30.14 228.18 30.14"/>
      <path class="cls-1" d="M500.7,101.81h-49.6s-11.55-.28-13.56-6.43c-2.7-8.22.74-13.91.74-13.91h0l20.18-37.59h0s4.02-8.39,9.08-10.75c6.44-3.05,21.49-2.99,21.49-2.99h49.71l-7.01,13.1h-31.21s-6.38.12-9.71,1.96c-4.77,2.71-6.55,5.86-6.55,5.86h0l-14.2,27.41h0s-2.24,2.99-1.15,6.6c.8,2.94,4.88,3.57,4.88,3.57h0l34.37-.23-7.48,13.39h0Z"/>
      <path class="cls-1" d="M563.5,0h30.46l-15.96,30.14h32.87s8.62-.23,11.32,5.81c3.28,7.29-.11,13.16-.11,13.16h0l-27.93,52.69h-30.64l26.44-49.6h0s1.95-4.13.92-6.55c-1.03-2.42-3.74-2.42-3.74-2.42h-16.09l-30.92,58.56h-30.46L563.5,0h0Z"/>
      <polygon class="cls-1" points="233.6 19.87 264.06 19.87 274.56 .04 244.09 .04 233.6 19.87"/>
      <path class="cls-2" d="M231.67.14l-11.29,19.75c-8.79.35-32.2.79-64.82,7.92-18.1,4.28-40.15,11.86-53.63,23.32h102.81l-10.45,19.08h-107.24c-19.77,41.78,56.78,41.78,56.78,41.78h445.05l-28.34,53.68H94.23s-131.95,0-83.57-90.68C50.38.49,231.67.14,231.67.14h0ZM519.92,122.61h.03l-16.91,32.04h4.11l16.99-32.04h-4.23ZM489.87,122.61h-4.24l-16.91,32.04h5.8l17.04-32.04h-1.68ZM451.92,122.61h-4.25l-16.9,32.04h9.3l16.99-32.04h-5.13ZM405.25,122.61h-4.25l-16.91,32.04h16.26l16.94-32.04h-12.05ZM355.01,122.61h-4.25l-16.91,32.04h19.63l17.02-32.04h-15.5ZM306.47,122.61h-9.35l-16.91,32.04h23.17l16.94-32.04h-13.85ZM248.2,122.61h-8.2l-16.91,32.04h26.62l16.94-32.04h-18.46ZM193.83,122.58h-14.63l-16.91,32.04h30.42l17.02-32.04h-15.9ZM550.08,122.62h.03l-16.91,32.04h2.43l16.95-32.04h-2.5Z"/>
    </g>
  </g>
</svg>