<?xml version="1.0" encoding="UTF-8"?>
<svg id="_레이어_2" data-name="레이어 2" xmlns="http://www.w3.org/2000/svg" viewBox="0 0 623.62 155.91">
  <defs>
    <style>
      .cls-1 {
        fill: #fff;
        fill-rule: evenodd;
      }
    </style>
  </defs>
  <g id="_레이어_1-2" data-name="레이어 1">
    <g>
      <polygon class="cls-1" points="467.72 155.91 623.62 0 529.79 0 373.88 155.91 467.72 155.91"/>
      <path class="cls-1" d="M445.36,67.9h-188.73c-57.52,0-67.58,3.05-92.22,27.69-23.04,23.04-60.47,60.32-60.47,60.32h81.76l19.5-19.51c12.82-12.82,19.44-14.15,46.36-14.15h139.45l54.35-54.35Z"/>
      <path class="cls-1" d="M161.89,84.47c-17.02,16.06-54.04,52.02-74,71.44H0S70.43,85.68,109.57,47.15C149.91,8.76,170.01,0,243.98,0h269.28l-58.31,58.3h-205.5c-51.98,0-63.66,3.6-87.56,26.16Z"/>
    </g>
  </g>
</svg>