<?xml version="1.0" encoding="UTF-8"?>
<svg id="_레이어_2" data-name="레이어 2" xmlns="http://www.w3.org/2000/svg" viewBox="0 0 623.62 406.52">
  <defs>
    <style>
      .cls-1 {
        fill: #fff;
      }
    </style>
  </defs>
  <g id="_레이어_1-2" data-name="레이어 1">
    <g>
      <path class="cls-1" d="M280.47,190.04h-60.11c-21.73,0-42.98,14.91-52.18,40.12-5.87,16.18-24.9,68.04-29.66,83.1-.79,2.22.48,3.65,2.38,3.65h97.85c2.85,0,3.96-1.27,4.76-3.33,6.5-19.98,40.76-116.57,41.08-118.63,0-2.22-.95-4.92-4.12-4.92"/>
      <path class="cls-1" d="M618.91.68h-142.1c-4.28,0-5.71.16-7.45,5.55-1.43,3.97-27.91,77.55-27.91,77.55-11.26,31.88-34.73,36.64-58.68,36.64h-38.06c-9.04,0-11.73,4.92-14.27,11.1-1.43,3.65-55.03,156.85-63.44,182.38-.64,2.06-.32,3.17,2.06,3.17h93.09c2.38,0,3.65-1.43,4.44-3.97,5.71-17.76,33.3-98.65,50.11-148.29,8.25-25.06,8.88-25.38,30.13-25.38h124.81c1.43,0,4.44-.63,5.23-3.49,5.23-15.7,44.88-125.93,46.15-129.89,1.43-4.6.32-5.39-4.12-5.39"/>
      <path class="cls-1" d="M344.54.52c-11.89-.32-46.63-1.59-76.92,1.59C136.94,16.38,42.42,85.53,10.22,185.44c-30.13,93.41,11.58,155.58,57.09,187.3,1.74,1.27,3.65.95,4.6-1.59.95-2.06,7.61-19.51,9.83-25.22.63-1.43.47-2.06-.48-2.85-28.55-28.07-35.53-70.1-19.82-112.44,22.36-60.74,94.84-97.22,161.13-105.15,8.41-.95,23.47-2.54,35.21-2.7,33.46-.63,51.07-7.3,59.31-30.93,9.2-26.01,28.71-82.31,29.82-86.28,1.27-3.96.32-5.07-2.38-5.07"/>
      <path class="cls-1" d="M132.98,362.43c1.27-3.97,2.7-10.31-2.38-10.31-5.55,0-8.09,6.03-13.16,22.36-5.07,16.81-5.87,22.2-.47,22.2,4.6,0,7.61-4.44,10.15-12.85l.63-1.9h-6.5l2.86-9.67h19.19l-9.99,32.99h-9.52l1.9-5.87h-.16c-3.81,5.39-9.36,6.98-14.75,6.98-14.59,0-13.64-11.42-7.77-30.61,6.03-20.14,11.42-33.15,30.93-33.15,17.76,0,14.59,12.85,12.53,19.82h-13.48Z"/>
      <path class="cls-1" d="M407.66,343.72h23c11.74,0,13.48,7.61,10.94,16.02-2.7,8.88-7.45,13.32-14.43,14.91v.16c8.4,1.27,7.14,6.98,5.39,15.38-2.54,12.21-3.33,14.91-3.33,14.91h-13.64s1.11-4.92,2.7-12.53c2.38-10.94,1.9-12.85-2.54-12.85h-5.23l-7.77,25.38h-13.8l18.71-61.38M413.69,369.73h4.28c5.55,0,8.4-4.28,9.52-7.93,1.43-4.6.79-7.77-4.76-7.77h-4.12l-4.92,15.7Z"/>
      <path class="cls-1" d="M160.1,343.72h23c11.74,0,13.48,7.61,10.94,16.02-2.7,8.88-7.45,13.32-14.43,14.91v.16c8.4,1.27,7.14,6.98,5.39,15.38-2.54,12.21-3.33,14.91-3.33,14.91h-13.8s1.11-4.92,2.7-12.53c2.38-10.94,1.9-12.85-2.54-12.85h-5.23l-7.77,25.38h-13.8l18.87-61.38M165.96,369.73h4.28c5.55,0,8.4-4.28,9.52-7.93,1.43-4.6.63-7.77-4.76-7.77h-4.12l-4.92,15.7Z"/>
      <path class="cls-1" d="M218.78,343.72h17.13l-4.12,61.38h-14.27l1.43-11.74h-13.96l-5.55,11.74h-14.27l33.62-61.38ZM223.69,354.98h0l-13.32,27.44h9.99l3.33-27.44Z"/>
      <polygon class="cls-1" points="254.94 343.72 270.8 343.72 269.84 383.68 270 383.68 282.22 343.72 294.9 343.72 276.35 405.25 260.8 405.25 261.6 362.91 261.44 362.91 248.59 405.25 236.22 405.25 254.94 343.72"/>
      <polygon class="cls-1" points="327.57 355.45 315.36 355.45 318.85 343.72 357.23 343.72 353.74 355.45 341.37 355.45 326.3 405.25 312.51 405.25 327.57 355.45"/>
      <path class="cls-1" d="M387.52,384.95c-3.65,12.05-9.83,21.57-25.69,21.57s-16.33-9.52-12.69-21.57l12.53-41.08h13.8l-13.8,45.36c-1.43,4.76-.48,7.61,3.17,7.61s6.34-2.85,7.77-7.61l13.8-45.36h13.8l-12.69,41.08Z"/>
      <polygon class="cls-1" points="453.82 343.72 467.46 343.72 448.9 405.25 435.1 405.25 453.82 343.72"/>
      <path class="cls-1" d="M474.43,386.38l-.63,2.22c-1.43,4.6-1.27,8.25,3.49,8.25s7.3-3.81,8.4-7.29c3.97-13.32-23.47-5.87-16.33-28.87,3.01-9.83,10.47-18.08,24.58-18.08s16.49,7.3,13.64,16.81l-.47,1.43h-13.32c.95-2.86,1.27-5.07.79-6.5-.32-1.43-1.43-2.22-3.49-2.22-3.49,0-6.19,2.22-7.45,6.66-3.96,12.85,23.16,6.34,16.65,28.07-4.28,13.96-13.32,19.51-25.85,19.51-9.99,0-18.24-3.17-14.43-16.02l1.27-3.96h13.16Z"/>
      <polygon class="cls-1" points="519.79 343.72 539.77 343.72 534.86 384.16 535.02 384.16 554.21 343.72 574.03 343.72 555.47 405.25 542.63 405.25 557.22 357.36 557.06 357.36 533.59 405.25 522.96 405.25 528.04 357.36 527.88 357.36 513.29 405.25 501.08 405.25 519.79 343.72"/>
      <path class="cls-1" d="M581.96,406.36c-18.08,0-16.81-12.37-10.79-31.88,5.87-19.51,12.05-31.88,30.13-31.88,19.51,0,16.02,14.91,10.78,31.88-5.07,16.97-10.62,31.88-30.13,31.88M584.81,396.69c5.55,0,8.09-5.39,13.16-22.2,5.07-16.81,6.03-22.36.32-22.36-5.39,0-7.93,5.39-13,22.36-5.08,16.81-5.87,22.2-.48,22.2"/>
    </g>
  </g>
</svg>